<?xml version="1.0" encoding="UTF-8"?>
<svg width="500" height="500" viewBox="0 0 500 500" xmlns="http://www.w3.org/2000/svg">
  <path fill="#ffffff" d="M244.1 323.8 c-13.4 -17 -32.1 -42.1 -32.1 -43.2 0 -1.4 5.9 -0.4 10.5 1.8 3.3 1.5 7.6 5.1 12.8 10.5 l7.7 8.3 0 -70.1 0 -70.1 -42.5 0 c-40.4 0 -42.7 -0.1 -47.9 -2.1 -5.4 -2 -9.6 -5.7 -9.6 -8.5 0 -1.2 17.3 -1.4 107 -1.4 117.4 0 110.3 -0.4 103.9 5.9 -5.7 5.8 -8.8 6.1 -55.1 6.1 l-41.8 0 0 70.1 0 70.1 7.2 -7.7 c7.6 -8.1 15.5 -13.5 20 -13.5 5.3 0 4.8 0.9 -11.7 22 -4.1 5.2 -10.3 13.3 -13.8 18 -3.7 5 -7.1 8.6 -8.3 8.8 -1.5 0.2 -3.3 -1.2 -6.3 -5z"/>
</svg>
